<svg width="23" height="23" viewBox="0 0 23 23" fill="none" xmlns="http://www.w3.org/2000/svg">
<path d="M1.91667 5.75001C2.97521 5.75001 3.83333 4.89188 3.83333 3.83334C3.83333 2.77479 2.97521 1.91667 1.91667 1.91667C0.858121 1.91667 0 2.77479 0 3.83334C0 4.89188 0.858121 5.75001 1.91667 5.75001Z" fill="white"/>
<path d="M23 1.91667H7.66667V5.75001H23V1.91667Z" fill="white"/>
<path d="M23 9.58334H7.66667V13.4167H23V9.58334Z" fill="white"/>
<path d="M7.66667 17.25H23V21.0833H7.66667V17.25Z" fill="white"/>
<path d="M3.83333 11.5C3.83333 12.5586 2.97521 13.4167 1.91667 13.4167C0.858121 13.4167 0 12.5586 0 11.5C0 10.4415 0.858121 9.58334 1.91667 9.58334C2.97521 9.58334 3.83333 10.4415 3.83333 11.5Z" fill="white"/>
<path d="M1.91667 21.0833C2.97521 21.0833 3.83333 20.2252 3.83333 19.1667C3.83333 18.1081 2.97521 17.25 1.91667 17.25C0.858121 17.25 0 18.1081 0 19.1667C0 20.2252 0.858121 21.0833 1.91667 21.0833Z" fill="white"/>
</svg>
