<svg width="21" height="21" viewBox="0 0 21 21" fill="none" xmlns="http://www.w3.org/2000/svg">
<path fill-rule="evenodd" clip-rule="evenodd" d="M16.7365 0.512563C16.0531 -0.170854 14.945 -0.170854 14.2616 0.512563L11.7867 2.98744L17.9739 9.17462L20.4488 6.69975C21.1322 6.01633 21.1322 4.90829 20.4488 4.22487L16.7365 0.512563ZM16.1178 2.36872C15.7761 2.02701 15.222 2.02701 14.8803 2.36872L14.2616 2.98744L17.9739 6.69975L18.5926 6.08103C18.9343 5.73932 18.9343 5.1853 18.5926 4.84359L16.1178 2.36872Z" fill="white"/>
<path d="M13.0242 6.69975L14.2616 7.93719L7.4557 14.7431C7.114 15.0848 6.55998 15.0848 6.21827 14.7431C5.87656 14.4014 5.87656 13.8474 6.21827 13.5057L13.0242 6.69975Z" fill="white"/>
<path d="M15.499 9.17462L16.7365 10.4121L9.31186 17.8367L0 21L3.12468 11.6495L10.4881 4.28605L11.7256 5.52348L4.67146 12.5776L3.27935 16.7539L4.20743 17.682L8.38378 16.2899L15.499 9.17462Z" fill="white"/>
</svg>
